# xmcd CD database file
#
# Track frame offsets:
#	150
#	20687
#	43820
#	65822
#	83550
#	104967
#	126797
#	162332
#
# Disc length: 2664 seconds
#
# Revision: 4
# Processed by: cddbd v1.5.1PL0 Copyright (c) Steve Scherf et al.
# Submitted via: CDex 1.50
#
DISCID=710a6608
DTITLE=Blue Junction - 22:17
DYEAR=1998
DGENRE=Blues
TTITLE0=If you only could forgive me
TTITLE1=Get out of my life woman
TTITLE2=Tired Man
TTITLE3=Done foolin'
TTITLE4=Black Widow
TTITLE5=Messin with The Kid
TTITLE6=Working' too much
TTITLE7=Junction shuffle
EXTD=YEAR: 1998
EXTT0=
EXTT1=
EXTT2=
EXTT3=
EXTT4=
EXTT5=
EXTT6=
EXTT7=
PLAYORDER=
